<svg xmlns="http://www.w3.org/2000/svg" width="512" height="512" version="1.2" viewBox="0 0 850 850">
  <path fill-rule="evenodd"
    d="M207.5 33.1c3.8 0 9.7.6 13 1.5 3.3.8 10.1 3.5 15 5.9 4.9 2.3 12.7 6.9 17.2 10.2 4.5 3.2 11.6 8.9 15.9 12.8 4.3 3.8 11.1 10.8 15.2 15.5 4.1 4.7 10.5 12.5 14.2 17.5 3.7 5 10 14.2 13.9 20.5 4 6.3 10.3 17.6 14.1 25 3.7 7.4 8.9 18.4 11.5 24.5 2.6 6.1 6.5 16.2 8.6 22.5 2.2 6.3 5.7 17.8 7.9 25.5 2.2 7.7 5.2 20.5 6.9 28.5 1.6 8 3.6 19.9 4.5 26.5.9 6.6 2 18.3 2.5 26 .5 7.7.7 14.3.5 14.7-.2.5-.2.8.1.8.3 0 4.9-.8 10.3-1.7 7.6-1.4 15.8-1.7 38.2-1.8 24.9 0 30 .3 40.5 2.2 6.6 1.2 13.1 2.4 17 3.4l.8-11.8c.5-6.5 1.7-18.8 2.8-27.3 1.1-8.5 3.3-22.3 5-30.5 1.6-8.3 4.3-19.9 5.9-26 1.6-6.1 5.2-17.8 8.1-26 2.8-8.3 7.4-20.2 10.1-26.5 2.7-6.3 8-17.3 11.7-24.5 3.7-7.2 9.6-17.5 13.1-23 3.4-5.5 10.1-15.2 14.8-21.5 4.7-6.4 14.6-17.5 22.1-25 8.3-8.3 17.1-15.9 22.6-19.6 5-3.4 12.7-8 17.2-10.3 4.6-2.2 11.8-5.1 16-6.2 6.1-1.7 9.7-2 16.3-1.7 7.1.4 9.5 1 15 3.8 3.8 1.9 8.8 5.7 12 8.9 3 3.2 6.9 8.6 8.7 12.2 1.7 3.5 4.1 9.3 5.2 12.9 1.2 3.6 3 11.2 4.2 17 1.1 5.8 2.3 17 2.8 25 .4 8 .4 21.9 0 31-.5 9.1-1.6 21.7-2.4 28-.9 6.3-2.5 15.6-3.5 20.5s-3 13.5-4.4 19c-1.4 5.5-4.3 15.5-6.6 22.3-2.2 6.7-6.9 19.1-10.5 27.5-3.6 8.3-9.8 21.1-13.7 28.2-3.9 7.1-9.5 16.8-12.3 21.5-2.9 4.7-10 14.8-15.8 22.5-5.7 7.7-12.9 16.6-21.2 25.7l-10-1.5c-5.5-.9-14.5-1.9-20-2.2-5.5-.4-16.4-.2-24.3.4-7.8.6-18.6 2-24 3.2-5.3 1.1-13.8 3.6-18.7 5.6-4.9 1.9-11.9 5-15.5 7-3.6 2-9.4 5.7-13 8.2-3.6 2.5-11 9-16.5 14.6-5.5 5.5-13 14.3-16.7 19.5-3.7 5.2-9.7 15.4-13.2 22.5-3.6 7.1-7.8 17.3-9.5 22.5-1.6 5.2-4 14.2-5.2 20-2 9-2.3 13.3-2.3 30.5 0 16.7.4 21.7 2.2 30 1.1 5.5 3.8 14.7 5.8 20.5 2 5.8 5.8 14.8 8.4 20 2.6 5.2 7.6 13.8 11.1 19 4 6.1 10.6 13.8 18.3 21.6 8.5 8.4 15.4 14.2 23.1 19.3 6.1 4 14.6 9.1 19 11.2 4.4 2.1 13.4 5.6 20 7.8 6.6 2.1 16.5 4.6 22 5.6 5.9 1 15.5 1.6 23.5 1.6 7.4 0 17.9-.7 23.2-1.5 5.4-.9 10.3-1.7 10.8-1.8.6-.2 9.2 13.3 37 60.2l-3.7 4.8c-2.1 2.6-7.8 8.7-12.8 13.6-4.9 4.9-13.3 12.1-18.5 16-5.2 3.9-13.5 9.7-18.5 12.7-5 3.1-14.2 8.2-20.5 11.4-6.3 3.2-17.6 8.1-25 11-7.4 2.9-19.1 6.9-26 8.9-6.9 2-18.8 5-26.5 6.6-7.7 1.5-18.9 3.7-25 4.7-8.9 1.4-16.5 1.8-39.5 1.8-21.8 0-31.3-.5-40.5-1.8-6.6-1-16.7-2.7-22.5-3.8-5.8-1.1-16.8-3.6-24.5-5.5-7.7-2-19.6-5.6-26.5-8.1-6.9-2.5-17.9-7.1-24.5-10.2-6.6-3.2-16.7-8.6-22.5-12.1-5.8-3.4-15.7-10.1-22-14.9-6.3-4.7-16.7-13.7-23-20.1-6.3-6.3-14.5-15.6-18.2-20.5-3.7-5-9.4-13.5-12.6-19-3.3-5.5-8-14.7-10.5-20.5-2.5-5.8-5.8-14.5-7.2-19.5-1.4-5-3.5-14.2-4.7-20.5-1.4-8-2.2-17.7-2.5-31.5-.3-12.5-.1-24.1.7-31 .6-6 2.3-17.1 3.7-24.5 1.3-7.4 3.7-19.1 5.4-26 1.6-6.9 5-19.2 7.5-27.5 2.6-8.2 6.9-21.1 9.7-28.5 2.7-7.4 7.7-19.6 11.1-27 3.4-7.4 9.3-18.9 13.1-25.5 3.8-6.6 10.3-16.5 14.4-22 4-5.5 12-14.6 28.1-30.5l-9.8-11.7c-5.3-6.5-13.2-16.5-17.3-22.3-4.2-5.8-10.6-15.2-14.1-21-3.6-5.8-9-15.2-12.1-21-3.1-5.8-8.2-16.6-11.5-24-3.3-7.4-8-19.3-10.5-26.5-2.5-7.2-6.3-20.2-8.5-29s-5-22.1-6.1-29.5c-1.2-7.4-2.5-17.6-3-22.5-.5-4.9-.9-17.1-1-27-.1-11 .5-23.1 1.4-31 .9-7.2 2.5-16.6 3.6-21 1.1-4.4 4-12 6.4-17 2.8-5.9 6.1-10.8 9.4-14.2 2.8-2.9 7.5-6.5 10.3-8 2.9-1.4 7.1-3.2 9.3-3.9 2.2-.7 7.1-1.3 11-1.3zM289 490.4c-1.9 1.4-5.1 4.6-7 7.3-1.9 2.6-4 6.8-4.7 9.3-.7 2.5-1.3 6.8-1.3 9.5 0 2.8.6 7.3 1.5 10 .8 2.8 2.9 7 4.7 9.4 1.8 2.4 5.2 5.7 7.5 7.3 2.4 1.5 7.1 3.5 10.5 4.4 4 1 7.8 1.3 10.3.9 2.2-.4 6.2-1.7 9-2.9 2.7-1.2 6.6-3.6 8.5-5.3 1.9-1.7 4.8-5.5 6.4-8.4 2.4-4.4 3.1-6.9 3.4-13.4.3-6.6 0-9-1.9-14-1.5-3.8-4-7.6-6.9-10.5-2.8-2.9-6.7-5.4-10.3-6.8-3.6-1.4-7.8-2.2-11.5-2.1-3.1 0-7.7.7-10.2 1.5-2.5.8-6.1 2.5-8 3.8zM379.5 636c-.8 1.6-1.5 4.5-1.5 6.3.1 1.7.6 4.8 1.3 6.7.7 1.9 3 5.9 5.2 8.9s7.5 8.4 11.9 12c4.3 3.6 8.5 8 9.3 9.6.9 1.6 1.8 5 2 7.5.3 2.5 0 7.6-.6 11.5-.7 3.9-2.5 9.2-3.9 11.9-1.5 2.7-4.6 6.6-7 8.7-2.3 2.2-6.8 5.2-10 6.8-3.1 1.5-8 3.3-10.7 3.9-2.8.6-7 1.4-9.5 1.8-2.7.4-5.4 1.6-6.8 3.1-1.4 1.5-2.2 3.5-2.2 5.8 0 1.9.4 4.4 1 5.5.5 1.1 2.5 2.7 4.2 3.6 2.5 1.3 4.7 1.5 9 1 3.2-.3 8.8-1.8 12.5-3.2 3.8-1.4 9.5-4.2 12.8-6.2 3.3-2 9.1-6.7 13-10.4l7-6.7c14 13.5 18.2 16.6 24.5 19.7 4.7 2.3 11.4 4.9 15 5.8 3.8.9 8.2 1.4 10.5 1 2.2-.3 5-1.5 6.3-2.8 1.2-1.3 2.5-3.9 2.8-5.8.5-2.8.2-4.1-1.7-6.3-2-2.4-3.9-3.1-11.4-4.6-5.5-1.1-11.5-3.1-15.5-5.2-3.5-1.9-8.7-5.6-11.6-8.4-2.8-2.7-6.2-7-7.5-9.5-2-3.8-2.4-6.3-2.7-16.5l-.5-12c9.9-8.5 15.6-13.8 19-17.2 3.5-3.5 7.2-8.2 8.3-10.5 1.1-2.4 2-6.2 2-8.5 0-2.4-.7-5.7-1.5-7.3-.8-1.6-2.9-3.7-4.5-4.5-1.6-.8-4.7-1.5-6.8-1.5-2 0-8.9.7-15.2 1.6-10.6 1.5-12.3 1.5-22 0-5.8-.9-12.1-1.6-14-1.6-1.9.1-4.7.7-6.3 1.5-1.5.8-3.4 2.9-4.2 4.5zm185-253.5c7.1.2 17 1.1 22 2 5 .9 13 3 18 4.6 5 1.7 12.4 4.6 16.5 6.5 4.1 1.9 12 6.5 17.5 10.2 5.5 3.7 13.8 10.5 18.4 15.2 4.7 4.7 10.7 11.6 13.4 15.5 2.7 3.9 6.7 10.6 8.9 15 2.3 4.4 5.2 10.9 6.5 14.5 1.4 3.6 3.4 10.3 4.4 15 1.2 4.9 2.2 14.4 2.6 22.5.4 10.6.1 16.8-1.2 25.5-.9 6.3-3 15.5-4.5 20.5-1.6 5-5 13-7.5 18-2.6 5-6.6 11.7-9 15-2.3 3.3-7.4 9.6-18.3 22l7.2 12.5c4 6.9 14.8 25.5 24.1 41.5 9.2 16 18.9 32.6 21.5 37 2.6 4.4 13.3 22.9 23.8 41s19.8 35 20.7 37.5c.8 2.5 1.5 6.5 1.5 9s-1 6.7-2.3 9.5c-1.4 2.9-3.9 6.2-6.2 8-2.2 1.6-5.5 3.5-7.5 4.2-1.9.7-6 1.2-9 1.2-3.2 0-7.2-.7-9.5-1.8-2.2-.9-5.8-3.8-8-6.3s-8.3-12.2-13.7-21.4c-5.3-9.3-26.1-45.5-46.3-80.4-20.1-34.9-36.9-63.8-37.3-64.2-.4-.4-4.3.4-8.7 1.7-4.4 1.3-12.7 3-18.5 3.9-5.8.9-15.5 1.6-21.5 1.6s-15-.7-20-1.5c-5-.9-12.9-2.9-17.8-4.5-4.8-1.7-12.6-5-17.5-7.4-4.8-2.4-11.8-6.7-15.7-9.4-3.9-2.7-9.9-7.6-13.4-10.8-3.5-3.3-9.9-10.6-14.3-16.4-4.3-5.8-10-15-12.7-20.5-2.7-5.5-6.1-13.6-7.4-18-1.4-4.4-3.3-13-4.2-19-1.3-8.2-1.6-14.5-1.2-25 .3-7.7 1.2-17.6 2.2-22 .9-4.4 3-12 4.6-17 1.7-4.9 5.1-13 7.6-18 2.4-4.9 6.6-11.9 9.1-15.5 2.6-3.6 6.9-9 9.7-12 2.7-3 7.4-7.7 10.5-10.4 3-2.6 8.2-6.7 11.5-8.9 3.3-2.3 9.8-6 14.5-8.3 4.7-2.3 12.1-5.3 16.5-6.7 4.4-1.3 11.1-3 15-3.6 3.9-.6 8.1-1.3 9.5-1.5 1.4-.3 8.4-.3 15.5-.1zm-33 54.4c-3.9 1.8-10.1 5.6-13.9 8.4-3.7 2.9-9.5 8.6-12.9 12.7-3.3 4.1-7.7 11.1-9.9 15.5-2.1 4.4-4.7 11.6-5.8 16-1.1 4.4-2.3 12.3-2.6 17.5-.5 6.7-.1 12.3 1 18.8.9 5 2.6 12 3.9 15.5 1.2 3.4 3.8 8.9 5.7 12.1 1.9 3.3 6.9 9.6 11 13.9 4.1 4.4 10.9 10.1 15 12.8 4.1 2.7 10.9 6.2 15 7.8 4.1 1.6 11.1 3.5 15.5 4.2 4.9.7 11.8 1 18 .6 5.8-.3 12.9-1.5 17-2.8 3.9-1.2 9.2-3.3 12-4.6 2.7-1.4 7.7-4.4 11-6.8 3.3-2.3 8.6-7.1 11.8-10.6 3.3-3.5 7.7-9.5 10-13.4 2.3-3.9 5.6-11.3 7.4-16.5 1.9-5.5 3.7-13.4 4.3-18.7q1-9.3 0-18c-.5-4.9-1.9-11.7-3.1-15.3-1.2-3.6-3.6-9.4-5.4-13-1.8-3.6-5.4-9.2-8.1-12.6-2.7-3.3-6.7-7.6-8.9-9.6-2.2-1.9-6.9-5.4-10.5-7.7-3.6-2.3-9.9-5.5-14-7.1-4.1-1.5-11-3.5-15.3-4.4-4.2-.9-12.1-1.6-17.5-1.5-5.5 0-12.7.8-16.7 1.8-3.9.9-10.1 3.2-14 5zm32 45.4c5.5.3 8.2 1 12.4 3.3 2.9 1.6 7 4.7 8.9 6.9 2 2.2 4.6 6.3 5.8 9 1.2 2.8 2.5 7.3 2.9 10q.7 5-.9 11.3c-.9 3.4-2.7 7.9-4 10-1.3 2-3.9 5.1-5.7 6.9-1.9 1.8-5.7 4.2-8.4 5.5-3.9 1.8-6.8 2.3-13 2.3-6 0-9.2-.6-12.5-2.1-2.5-1.1-6.3-3.6-8.4-5.5-2.2-1.9-4.9-5-6.1-6.9-1.3-1.9-3-6.2-4-9.5-1.3-4.3-1.6-7.6-1.1-11.5.4-3 1.8-8 3.2-11 1.4-3 3.9-7 5.7-8.8 1.8-1.8 4.8-4.3 6.7-5.5 1.9-1.1 5.3-2.7 7.5-3.4 2.2-.7 7.1-1.1 11-1z"
    style="opacity:1;fill:#fff" />
</svg>
